<?xml version="1.0" standalone="no"?>
<!DOCTYPE svg PUBLIC "-//W3C//DTD SVG 20010904//EN"
 "http://www.w3.org/TR/2001/REC-SVG-20010904/DTD/svg10.dtd">
<svg version="1.0" xmlns="http://www.w3.org/2000/svg"
 width="300.000000pt" height="300.000000pt" viewBox="0 0 300.000000 300.000000"
 preserveAspectRatio="xMidYMid meet">
<metadata>
Created by potrace 1.10, written by Peter Selinger 2001-2011
</metadata>
<g transform="translate(0.000000,300.000000) scale(0.100000,-0.100000)"
fill="#000000" stroke="none">
<path d="M1602 2598 c-1 -31 -7 -60 -14 -64 -6 -4 -57 -8 -112 -9 -56 -2 -138
-10 -183 -19 -46 -10 -87 -14 -93 -11 -5 3 -11 18 -12 33 0 15 -4 5 -7 -23 -4
-27 -6 -51 -5 -53 0 -1 41 8 90 20 133 33 351 31 485 -4 362 -97 632 -375 730
-753 33 -127 33 -312 0 -440 -27 -105 -90 -246 -152 -336 -97 -144 -262 -278
-428 -349 -147 -63 -213 -75 -406 -74 -187 1 -251 12 -400 75 -177 73 -362
234 -464 404 -29 50 -51 82 -47 72 3 -10 7 -51 7 -90 1 -40 3 -63 6 -52 9 38
21 37 49 -5 16 -23 64 -79 107 -124 42 -44 77 -84 77 -88 0 -5 5 -8 11 -8 6 0
29 -13 52 -29 71 -49 141 -87 172 -95 16 -4 35 -16 43 -27 7 -11 16 -18 20
-15 4 2 57 -9 117 -24 l110 -27 0 -78 c0 -63 3 -80 18 -89 28 -17 38 9 35 90
l-3 72 125 5 c69 3 159 13 200 23 41 9 83 17 93 18 9 0 17 4 17 8 0 4 17 10
38 14 20 3 42 11 47 18 15 16 53 36 69 36 8 0 16 3 18 8 3 8 106 72 115 72 14
0 173 171 211 226 81 121 116 199 154 349 19 76 22 117 23 260 0 149 -3 180
-23 250 -43 147 -138 320 -228 415 -36 38 -43 60 -20 60 19 0 29 34 27 85 -2
71 -21 65 -21 -8 0 -54 -3 -67 -16 -67 -13 0 -15 11 -12 65 2 40 -1 64 -7 62
-5 -2 -11 -27 -13 -55 -2 -29 -7 -52 -11 -52 -11 0 -95 61 -99 72 -2 4 -8 8
-14 8 -5 0 -29 13 -53 30 -65 44 -197 99 -296 123 l-89 21 -2 66 -2 65 -3 -55
c-6 -100 -17 -112 -23 -25 -6 73 -7 75 -8 23z m-212 -2193 c0 -50 -4 -85 -10
-85 -6 0 -10 35 -10 85 0 50 4 85 10 85 6 0 10 -35 10 -85z"/>
<path d="M1033 2598 c-12 -20 -13 -40 -2 -60 12 -23 87 -26 95 -3 10 25 24 17
24 -15 0 -38 -29 -64 -121 -107 l-70 -32 -9 23 c-10 27 -54 40 -71 20 -17 -21
-2 -64 21 -64 11 0 20 -4 20 -10 0 -5 -6 -10 -13 -10 -22 0 -162 -136 -222
-215 -56 -74 -71 -86 -80 -62 -3 7 -21 12 -43 11 -30 -1 -39 -6 -46 -27 -12
-34 7 -57 46 -57 26 0 29 -3 22 -22 -3 -13 -14 -39 -24 -58 -100 -202 -112
-511 -28 -753 15 -45 19 -75 15 -142 -2 -60 0 -88 9 -95 9 -8 11 14 10 102 -1
96 -6 127 -30 203 -28 85 -30 99 -30 265 -1 153 2 186 22 260 28 102 84 224
142 311 95 141 281 295 428 355 l57 23 3 60 c2 39 -1 61 -8 61 -6 0 -16 11
-22 25 -9 20 -18 25 -49 25 -21 0 -41 -6 -46 -12z m71 -21 c8 -12 7 -21 -5
-32 -21 -21 -49 -9 -49 20 0 36 34 44 54 12z m-176 -179 c-2 -13 -10 -23 -18
-23 -8 0 -16 10 -18 23 -3 17 2 22 18 22 16 0 21 -5 18 -22z m-340 -366 c4
-28 -24 -40 -45 -19 -21 21 -9 49 19 45 15 -2 24 -11 26 -26z"/>
<path d="M718 2560 c-5 -63 -5 -87 3 -100 5 -9 9 10 9 53 0 37 -2 67 -5 67 -3
0 -6 -9 -7 -20z"/>
<path d="M742 2505 l1 -80 10 58 c6 40 6 65 -1 80 -8 17 -11 5 -10 -58z"/>
<path d="M1761 2566 c-13 -16 -4 -46 14 -46 7 0 18 7 25 15 10 12 10 18 0 30
-15 19 -24 19 -39 1z m35 -7 c10 -17 -13 -36 -27 -22 -12 12 -4 33 11 33 5 0
12 -5 16 -11z"/>
<path d="M1919 2561 c-22 -18 -22 -19 -6 -45 10 -14 22 -26 28 -26 25 0 49 22
49 45 0 14 -8 29 -19 35 -25 13 -25 13 -52 -9z m51 -21 c0 -24 -26 -38 -42
-22 -16 16 -2 42 22 42 13 0 20 -7 20 -20z"/>
<path d="M1380 2404 c-14 -2 -56 -11 -93 -20 -319 -73 -581 -332 -673 -664
-14 -50 -18 -101 -18 -225 0 -145 3 -168 27 -248 50 -162 124 -284 243 -398
85 -81 140 -119 246 -169 278 -132 623 -108 885 62 43 28 114 87 158 132 475
488 250 1307 -412 1502 -69 20 -115 26 -213 29 -69 2 -136 2 -150 -1z m354
-53 c392 -118 645 -458 647 -869 0 -145 -22 -240 -86 -367 -57 -112 -79 -144
-158 -223 -148 -151 -321 -237 -527 -262 -210 -25 -445 31 -610 144 -74 51
-208 188 -251 256 -154 242 -177 562 -59 825 45 101 105 183 202 277 128 125
256 196 424 232 101 21 327 15 418 -13z"/>
<path d="M1672 2186 c-37 -34 -37 -35 -36 -113 0 -88 27 -172 70 -218 14 -15
23 -30 20 -33 -3 -3 -1 -11 6 -19 17 -20 6 -24 -38 -12 -79 23 -230 -6 -284
-53 -21 -19 -40 -54 -40 -76 0 -10 14 -31 30 -47 17 -16 30 -33 30 -38 0 -5
10 -17 23 -27 16 -14 32 -18 59 -13 21 3 51 0 68 -7 26 -11 30 -18 30 -49 0
-41 -26 -76 -68 -92 -75 -29 -248 -17 -301 20 -47 32 -109 51 -133 42 -26 -10
-58 -45 -58 -64 0 -6 -7 2 -16 18 -30 59 -10 195 45 300 33 63 27 96 -27 129
-18 11 -63 -17 -118 -76 -67 -71 -89 -110 -113 -198 -16 -58 -20 -95 -17 -164
3 -49 8 -92 13 -95 5 -3 10 -24 12 -46 1 -22 7 -44 12 -49 5 -6 9 -18 9 -29 0
-10 4 -16 9 -13 5 3 12 -5 15 -19 7 -26 50 -93 90 -139 15 -16 26 -33 26 -38
0 -4 3 -7 8 -6 12 5 52 -28 44 -37 -4 -4 -1 -6 7 -3 8 2 28 -9 45 -24 17 -15
36 -28 42 -28 6 0 36 -11 65 -24 30 -13 70 -26 89 -30 19 -3 46 -9 60 -12 37
-8 180 -12 175 -4 -2 3 15 7 38 8 64 4 77 6 77 13 0 4 12 10 28 14 74 18 203
115 300 227 18 21 37 38 43 38 6 0 7 5 3 11 -5 8 -1 8 14 0 31 -16 54 -13 83
12 32 27 44 49 75 139 37 110 23 270 -33 371 -10 18 -21 34 -24 37 -3 3 -16
23 -27 45 -12 22 -21 37 -22 34 0 -3 -43 36 -94 87 -94 92 -146 159 -146 189
0 8 -5 15 -10 15 -5 0 -9 3 -9 8 1 4 1 26 0 48 -1 34 -8 49 -41 83 -22 22 -47
41 -55 41 -8 0 -32 -15 -53 -34z m81 -10 c8 -8 17 -43 21 -78 10 -103 44 -157
182 -293 98 -97 127 -132 152 -185 53 -114 64 -213 37 -328 -17 -73 -59 -160
-81 -169 -31 -12 -37 13 -16 69 28 75 37 180 22 254 -26 127 -65 180 -268 365
-84 77 -125 162 -126 264 -1 59 3 77 18 94 22 25 39 27 59 7z m-673 -395 c0
-5 -16 -32 -35 -61 -57 -84 -75 -182 -55 -301 23 -142 98 -247 219 -308 198
-100 414 -74 556 67 124 125 139 307 34 426 -50 57 -104 86 -174 93 -62 7
-111 -8 -160 -47 -40 -32 -65 -30 -65 4 0 23 38 65 76 85 36 18 125 24 189 12
135 -25 258 -121 318 -248 29 -62 32 -77 32 -164 0 -92 -1 -98 -42 -181 -33
-66 -58 -100 -110 -149 -76 -71 -179 -130 -269 -154 -73 -19 -232 -19 -301 -1
-162 43 -327 167 -404 303 -18 32 -36 60 -41 61 -4 2 -6 7 -4 11 3 4 -1 41 -8
82 -8 43 -10 81 -5 91 5 9 9 32 9 51 0 93 76 245 160 321 34 30 44 35 60 26
11 -6 20 -15 20 -19z m589 -189 c130 -80 142 -283 24 -381 -72 -60 -180 -81
-293 -57 -91 19 -163 53 -223 106 -80 71 -108 138 -67 160 16 9 33 3 92 -29
89 -48 142 -63 228 -63 77 -1 131 14 177 49 42 31 55 57 55 105 -1 53 -24 85
-71 99 -35 10 -45 9 -79 -9 -22 -11 -43 -18 -46 -15 -15 15 -3 33 37 52 52 27
103 22 166 -17z"/>
<path d="M313 1990 c0 -36 2 -50 4 -32 2 17 2 47 0 65 -2 17 -4 3 -4 -33z"/>
<path d="M332 1995 c0 -56 1 -58 9 -23 5 22 5 47 -1 60 -7 18 -9 9 -8 -37z"/>
<path d="M2597 1843 c-11 -11 -8 -471 3 -478 7 -4 10 78 10 239 0 135 -1 246
-3 246 -2 0 -7 -3 -10 -7z"/>
<path d="M2631 1605 c1 -141 4 -239 9 -225 12 36 12 442 0 460 -6 10 -9 -70
-9 -235z"/>
<path d="M376 1794 c-8 -21 -6 -185 3 -254 6 -43 9 -19 12 108 4 151 0 186
-15 146z"/>
<path d="M411 1643 c0 -178 16 -183 19 -7 3 145 2 164 -10 164 -6 0 -10 -59
-9 -157z"/>
<path d="M2492 885 c0 -119 3 -199 8 -185 11 33 11 304 1 355 -6 26 -9 -33 -9
-170z"/>
<path d="M2458 963 c-2 -49 0 -128 3 -178 4 -71 6 -53 7 88 2 184 -4 241 -10
90z"/>
<path d="M760 665 c-15 -45 -8 -134 11 -146 21 -14 53 -6 66 16 20 33 12 143
-11 148 -5 1 -8 -33 -7 -75 2 -74 1 -78 -19 -78 -21 0 -22 4 -19 80 4 90 -3
108 -21 55z"/>
<path d="M2280 685 c-1 -5 -1 -43 0 -83 1 -66 0 -73 -17 -70 -16 3 -18 13 -17
76 1 71 -8 93 -22 50 -11 -35 -5 -121 8 -135 19 -19 55 -5 66 26 10 30 6 106
-8 130 -5 9 -10 12 -10 6z"/>
<path d="M2160 602 c0 -53 4 -81 10 -77 13 8 13 125 0 145 -7 10 -10 -11 -10
-68z"/>
<path d="M2133 590 c0 -41 2 -58 4 -37 2 20 2 54 0 75 -2 20 -4 3 -4 -38z"/>
<path d="M1905 496 c-12 -61 22 -88 81 -66 17 7 24 17 24 37 0 43 -13 56 -49
51 -17 -2 -31 -1 -31 4 0 4 -4 8 -10 8 -5 0 -12 -15 -15 -34z m81 -10 c8 -32
-2 -46 -31 -46 -28 0 -43 34 -25 55 19 23 49 18 56 -9z"/>
<path d="M1030 506 c-14 -14 -13 -59 2 -74 7 -7 29 -12 50 -12 33 0 40 4 49
27 16 43 -4 70 -51 70 -22 0 -44 -5 -50 -11z m73 -17 c15 -24 1 -49 -27 -49
-29 0 -44 33 -25 56 15 18 38 15 52 -7z"/>
</g>
</svg>
